<svg data-name="Layer 1" xmlns="http://www.w3.org/2000/svg" viewBox="0 0 1062 1106"><g fill="#1a1818" class="nc-icon-wrapper"><path d="M200.89 680.7v-484.93h660.29v526.55c-15.21-5.8-30.15-2.34-45.06-3.5 0.27 3.89-1.48 6.27-3.57 7-5.08 1.83-8.31 6.25-13.14 8.33-6 2.57-13 5.36-15.4 11-1.68 4-6.46 3.4-7.24 8.39-0.58 3.74-6.08 6.7-9.38 10-1.45 1.46-3.39 2.71-2.39 5.46 1.46 1.86 5 0.57 6 3.23 9.07-5.57 11.71-16.39 19-23.59s16.45-12.29 23.14-20.09c7.23 6.61 10 11.4 12.16 18.87 0.87 3 2 6.09-1.08 7.74-9.84 5.25-17.43 13.33-26.18 19.94a120.52 120.52 0 0 0-21.64 21.5c4.69 2.36 7.45 1.67 10.61-1.38s5-8.33 12.1-6.59c0.78 0.25 0.47-0.44-0.05-0.7-1.07-0.52-1.6 0-1.07 1.08a3.38 3.38 0 0 0 1.49 1.15c0.09 0.05 0.51-0.49-0.37-1.53-1.46-2.35-0.38-3.43 0.84-3.21 6.4 1.15 11.34-1.83 13-7.21 1.53-5 5.8-3.58 6.54-2.78 2.89 3.11 6.21 2.1 9.42 2.22 4.11 0.14 8.23 0 14.54 0-10.58 11.83-25.71 14.54-32.65 27.41 2.3-0.23 3.85-2.61 6.24-1.91 3.19 0.93 4.08-2.56 6.21-3.43 4.45-1.8 8.46-4.87 12.66-6.33 5.4-1.87 11.61-5.61 18.45-1.57-6.4 2.64-12.87 4.09-17.89 7.61-12.7 8.88-26.69 16.23-36.65 28.66a7.64 7.64 0 0 1-1.8 1.79c-12 7.53-20.76 18.84-32.07 27.17-1.27 0.93-3.64 1.86-3.18 4.25 2.06 1 3.26 0.31 4.74-0.77 11.74-8.51 23.59-16.88 35.4-25.31 2-1.39 2.87-4.15 6-4 4.88 0.21 7.93-3.28 11.65-5.76a116.59 116.59 0 0 1 30.89-14.63c3.29-1 6.13-4.6 10.29-1.31v87.68c0 1.91 1 5.28-1.55 5.33-5.9 0.11-2.72 6.35-6.06 7.86h-12.81c0-3.4-0.17-6.8 0-10.18a17.57 17.57 0 0 0-2.55-10.43c-3.73-6.31-9.1-8.36-15.54-4.79-3.49 1.93-5.57 2.51-9.57 0.16-6.1-3.57-14.11-1.81-20.7-5.26a4.5 4.5 0 0 0-5.65 1.48c-1.8 2.47-5.13 2.51-7.26 3.8-10.54 6.39-24.29 5.52-33.33 15-0.21 0.23-0.89-0.06-1.19 0.14-3.77 2.48-4 4.6-1.21 10.1h-30.58c-0.28-0.71-0.44-1.93-0.86-2-1.53-0.34-1.78 0.79-1.69 2h-278.11c0.41-2.06-2.52-3.69-2.31-3.8 5.85-3.12 4.25-9.43 6.09-14.16 5.58-14.3 3.64-29.38 3.87-44.22-6.46-14.3-6.93-30.12-11.37-44.93-2 0.23-4.17-0.84-6.49 1.1 0 5.06 0.46 10.56-0.12 16-0.66 6.1 3.32 7.68 7.55 9.4 0.92 5.6-1.37 11.64 2.69 16.78 0.62 0.79 0.63 3.14 0 3.65-4.65 3.79-1.87 6.41 1.2 9 1.52 1.27 1.46 2.83 1.45 4.51 0 6.36 0.77 12.85-0.22 19.06-1.14 7.2-3 14.56-9 20.32-7.32-11.58-14.4-22.65-21.33-33.82-1.33-2.14-2.41-4.27-5.72-4.75h0.57a9.88 9.88 0 0 0-0.74-2c-0.42-0.67-1.19-0.51-1.5 0.48-0.11 0.35 0.71 1 1.67 1.49 0.25 1.56 1.36 3.39-0.77 5.09-1.21-1.35-3.33-2.62-3.61-4.2-0.81-4.75-4.6-7.13-7.71-9.38-4-2.88-1-8.33-5.19-10.7s-5.35-7-7.58-10.79c-6.66-11.21-12.3-22.99-19.51-33.74a66.93 66.93 0 0 1-8.68-18c3.47-0.54 3.53 5.57 8.62 3.9-5.23-6.27-4.53-11.63 2-15.77 3.71-2.35 4-7.1 7.2-9.78-1.65-6.79 2.8-12.69 2.72-19.34-0.07-7 2.37-13.07 7-18.83 4.36-5.46 8.35-12.14 3.84-19.77-1-1.7-1.25-3.14 0.31-4.35 2.08-1.6 1.87-3.88 1.42-5.76-2-8.49-3.55-17.2-6.66-25.29-5.61-14.62-7.18-21.45-6-37.49 0.09-1.27 0.43-2.74-0.06-3.79-2.29-4.9-0.63-9.62-0.07-14.52 0.62-5.46 0.14-11 0.14-16.57 0-1.62-0.42-3.82 1.79-4 6.35-0.48 3.84-6.08 3-7.55-3.16-5.71-2.28-12.39-5.74-18.13a32.92 32.92 0 0 1-4.34-17.35c0.12-13.18 0.25-26.24 5.27-38.71-1.75-5.6 3-10.26 2.43-15.51-0.69-6.24 4.59-10.43 4.91-15.78 0.26-4.27 3.69-3.61 4.94-5.54 1.41-2.2-0.26-5.74 2.81-7.8 0.91-0.61-0.59-3.23 2.94-3.64-1.72 9.68 1.94 18.29 5 27 2.92 8.27 3.66 17.76 12.62 23.22-5.27-10.08-5.77-21.26-8.61-31.79-2-7.63-0.82-14.89-1.36-22.28-0.12-1.6 2.36-1.79 4.68-0.77 1.15 4.92-1.86 11.75 4.71 15.44 0.56 0.32 0.76 2.73 0.23 3.26-3.4 3.39-2.84 6.11 0 9.83 2 2.71-0.28 6.85 2.54 10.5 1.93 2.51 3.23 4.68 6.25 6.41 7.69 4.4 15.92 5.41 24.66 4.8 0.93 12.29 11.9 20.7 10.08 33-11.35 1.85-20-4.08-29.19-7.61-2.17 8.86-4.19 17.07-3.87 25.86 0.28 7.78 3.39 13.8 9.43 17.6a179.13 179.13 0 0 0 20.75 11.36c5.44 2.48 9.05 2.13 13.23-2 6.92-6.77 15.63-9 24.85-9.28 2.38 6.5-1 10.8-3 15.61-1.35 3.23-4 5.8-4.06 9.9-0.07 3.34 2 5.24 2.93 7.83 1.08 3.06-2.46 4.44-1.67 7.48 1.05 4.07-2.47 14.26-5.38 15.19s-5.45 4.66-9 2.67c-2.13-1.19-3.77-3.25-5.63-4.91-3 4.06-5 0.71-6.2-1.28-3.19-5.22-7.85-8.64-13-11.46-1.06-0.59-2.52-0.73-2.54-2-0.12-5.5-5.32-3.73-6.29-2.89-2.5 2.18-5.81 2.38-9.27 5.44 0.82-9.34 5.24-17.55 1.55-26.35-4.78 4.22-5.19 10.7-8.81 15.45-3.5 4.59-7 10.34-7.49 15.83-0.85 10.71-3 21.21-3.32 32.07-0.46 17.26 4.09 34.07 3 51.26-0.19 2.85 2.11 4 4.17 5.22 1.14-2.17 1.05-5.5 3.64-6.13 8.42-2.05 7.6-8.42 7.53-14.64 0-0.6 0.85-1.21 1.39-1.93 2.28 2 0.05 5 1.91 7.27 3 0.35 6.52 1.65 9.19-0.8 4.17-3.84 9.44-7.19 8.21-14.09 2.57 0 4.27-0.05 6 0 0.32 0 0.62 0.53 0.92 0.81 2.66 9.13-5.39 18.06-0.64 28.35 3.84-3 5.82-6.12 6.12-10.11 0.34-4.73 3.86-6.26 7.39-8.35 1.06 4.17-0.81 8.48 1.48 12.56 2.74-5.6 3.57-5.78 6.48-1.75 1.16 1.6 2.57 1.78 5 0.64 0.91-6.95-2.32-15.47 5.53-22.74v26.1c2.71-12.77 8.61-24.69 8.22-38.2 0.64 3.61 3.76 5.39 4.42 9.06a60.08 60.08 0 0 0 5.43 15.53c2.11 4.31 6.7 4.67 10.35 1.27 4.34-4.06 8.37-8.46 12.68-12.57 2.57-2.44 2.33-5 0.81-8.49-3.88 3.86-7.57 7.54-12 11.94-3.29-5.3-8.86-4.77-12.47-8 0-3.41-0.23-6.83 0.08-10.2a5 5 0 0 0-2.93-5.11c-3-1.48-5.14-2.34-5.22-6.81-0.06-2.82-2.21-6.86-5.4-9.08-3.91-2.73-4.81-7.32-7.36-11.76 4.21-3.16 6-8 8.27-12.71a75.82 75.82 0 0 1 10.55-16c8-9.54 11.8-11.49 26.37-16.23 5.35-1.74 7.81-4 6.05-7.35-3.79-7.25-1.49-14.72-2.48-22 6.3-6.19 13.59-11 20.06-16.9 7.05-6.39 7.56-15.61 12.15-22.93 6.11 4 6.12 4 8.76 8.43 1.47 2.48 2.79 5.25 6.51 4.47 2.56-4 3.21-9.15 7.41-12.48 2.4 1.24 3.4 4.56 7.66 5.7 0.77 0.25 0.46-0.45-0.06-0.7-1.07-0.52-1.59 0-1.07 1.08a3.44 3.44 0 0 0 1.49 1.15c0.1 0.05 0.51-0.49-0.36-1.53-0.88-5.33-4.22-8.84-4.78-13.23-0.89-6.89-5.8-13.22-3.33-20.91l12.32 12c-2.65 6-3.43 11.33-0.72 18.32 4.13 10.67 8.34 20.71 16.88 28.61 1.87 1.73 5.49 3.1 3.26 7.33-5.89-3-8.5-9.85-15.17-12.42h0.57a9.86 9.86 0 0 0-0.73-2c-0.42-0.67-1.2-0.51-1.5 0.48-0.11 0.35 0.7 1 1.66 1.49 2.27 6.95 2.92 14.4 5.94 20.73 4 8.31 2.52 15.24-1.28 22.33-10.65-6.38-18.09-0.08-25.29 6.18-5.49-10-11.13-13.68-16.12-10.43-3.75 2.44-7.11 6.13-7.87 10.6-0.29 1.68 0.95 5.18 3.75 6.92 6.53-1.62 14 2.54 20.4-2.67 0.41-0.34 1.76 0 2.29 0.4 5 4.25 12.29 0.16 17.22 4.64 18.4 1.37 30 13.66 41.5 26 0.5 0.53 0.56 1.46 0.86 2.18 2.19 5.33 2.19 5.33 7.86 9.06-6.18-8-6.2-17.46-7.95-26.82 4.11 0.27 1.11 5.51 5 4.86 3.2-0.54 5.15-2.44 5.28-5.85 0.05-1.28 0-2.55 0-3.83v-8.93c0-5.3 0.09-5.25 5-11.76 0.56-0.75 0.2-2.22 1.69-2.45 2.1 2.1 3.86 5 6.4 6.11 3.13 1.39 0.36 8 6.64 6.12 2.19-11.52 7-22.79 5.6-35.52 9.84 1.83 11.47-8.48 18.32-10.17 2.3-0.57 4.34-2.46 4.59-3.89 1.47-8.51 9.62-13.76 10.56-22.5 0.19-1.7 2.95-4.47 3.91-3.72 5.05 4 10.6 1.35 15.84 1.94 9.65 1.07 9.44 0.75 14-6.9 6.09-10.3 6.32-22.55 11.35-33.2 0.3-0.64-2.89-3 1.08-3.24a2.3 2.3 0 0 0 2.07-3.53c-2.1-2.48-3.81-6.35-7.25-6.51-6.78-0.29-13.7-0.75-21.29 0.5l2.74 2.74c-2.53 1.42-5.18 4.13-7.57 3.92-3-0.27-2.94-6.17-7.32-6.1 1.22-8.34-5.72-16-0.95-25.11 2.58-4.93 2-11.35-2.68-17.31a89.71 89.71 0 0 1-14.3-24.58c-3-8.27-8.24-15.34-12.87-22.77s-8.73-15.17-12.6-22.92c-2.95-5.91-10.94-7.88-11.11-15.63 0-1.07-2.73-3.23-3.58-3-5.72 1.83-5.53-3.61-7.61-6-14.3-16.02-31.56-27.83-50.56-38.02-11.47-6.18-24.4-6.75-35.72-12.36-5.12-2.54-10.3-2.09-15.57-2.49-21-1.61-41.71 4.24-62.71 2.61a5.7 5.7 0 0 0-2.54 0c-13.46 5.89-28.2 7.44-42.02 12.34-3.8 1.35-7.89 3.89-12.85 3.16-5.48-0.8-6.28 7.74-12.11 7.46-10 7.58-19.26 16.14-30.14 22.62-3.54 2.11-7.23 5.35-8.89 9-6 13-16.12 23.66-20.88 37.25a25 25 0 0 1-3 6.3c-12.18 14.76-14.45 33.27-19.96 50.5-2.78 8.7-3.7 18-6 26.86-3.15 12.09-7.13 24-6.89 36.69 0 2.55 1 5.76-0.18 7.52-3.09 4.63-3 9.68-2.14 14.34 1 5.44-3 9.24-2.88 14.29 0.26 18.71-0.12 37.42 0.17 56.13s-4.16 37.43-2.76 56.35c0.66 9 1.09 18.18-3.79 27.26-4.83 0.14-9.48-2.46-14.11-4.32-7-2.81-14.63-5.45-21.31-2.94a28.24 28.24 0 0 1-11.89 1.88c-17.07-1-32.48 4.92-47.65 11.34-2.94 1.24-5.51 1.18-8.29 1.56z m154.51 112.3h1.13a9.63 9.63 0 0 0-0.73-2c-0.42-0.67-1.19-0.51-1.5 0.48-0.11 0.35 0.7 1 5 4.1-0.45-0.76-0.8-2-1.6-2.54-1-0.7-1.39-0.1-1.18 1.12 0.24 1.38-0.47 3.12 1.56 3.6 0.16 0.07 0.65-1.17-2.68-4.76z m151.6-189.53l6.05-7c-4.08 0.31-6.24 2.83-6 8.81v-1.14a10.41 10.41 0 0 0-2 0.73c-0.68 0.43-0.51 1.2 0.48 1.51 0.4 0.09 1.04-0.72 1.47-2.91z m-126.2 187.87c-9.23 6-4.69 15.11-8.93 20.82a1.64 1.64 0 0 0 0 1.2c6 1.5 7.34 10.12 15.26 10.33 0.36-11.24-2.74-21-15.3-8-0.56-0.58 1.25-2.57-1.14-2.18a2.15 2.15 0 0 0-1.29 1.68 12.29 12.29 0 0 0 1 3.13c1.15-0.44 1.6-1.32 10.4-26.98z m250.25-73.79c3.67 11.71-3 21.53-0.37 31.93 0.5-5.13 4.89-9.16 3.91-14.5-1-5.57 1.18-10.5 2.73-15.49 1.2-3.87 3.63-7.52 2.36-11.7-1.49-4.93 3.61-8.05 2.77-13-1.51-8.89 2.2-18.32-2.63-27-0.54-1-0.15-2.51-0.06-3.78 0.7-9.38 0.47-12.77-2.64-17.17-2.23-3.15-4.37-7-9.64-7v12.6l9.39 0.48c-0.33 3.08 2.79 6.32-3.19 7.7-4 0.91-7.3 4.27-11.93 5.07a16.71 16.71 0 0 0-9.29 5.19c-2 2.18 0.77 5.16-1.66 6.94-3.7 1.42-9.92-2.3-10.29 5.33-6.08-3.23-6.9-9.21-7.41-15.54-3.32 2.43-0.43 5.64-3.1 8-6.77-6.09-6.7-14.26-7.81-22.55-6.21-1.17-12.94-0.94-19 3.49 0 3.39 0.14 6.8 0 10.19-0.14 2.86 1 6.05-2.51 10.77 0-4.79 0.21-7.29 0-9.73-0.34-3.18-2.4-2.61-4.75-1.63v85.29c5.9 4.22 9.59 10.75 13.62 16.06 5.18 0.32 5.61-5.87 10.35-5.15 8.91 1.36 16-2.08 21.82-8.87 1.76-2.07 5.5-1.76 7-4.58 1.91-3.72 6.46-0.11 8.84-3.5 2.08-3 2.72-6.87 6.15-9a6.93 6.93 0 0 0 3.43-7.47c-0.77-4.04 2.86-6.47 3.91-11.38z m57.67-161.55c-1.43 3.84-0.26 6.94-1.84 10.38-3.38 7.4 0.75 16.35-3.65 24-0.74 1.28-0.12 3.34-0.1 5a5.39 5.39 0 0 0 0.19 2.47c5.09 8.67 2.95 18.34 2 27.05-2.12 18.55-3.14 18.49 2 33 0.9 2.52 1.4 4.63 0.15 6.94-4.84 9-4.35 18.62-1 27.49 1.4 3.77 1.22 7.16 1.81 10.71 0.67 4-1.75 8.51 2.28 11.82 0.25 9.66 1.73 19.53-0.56 28.92-2.56 10.48-4.65 21.07-6.57 31.63-1.73 9.49-5.56 18.62-5.35 28.46-3.36 1.1-0.45 8.41-7.65 6.47v-13.34c0-2.55 1.07-6.09-0.2-7.48-4.52-4.93 0-11.46-2.72-15.47-3.91-5.81-1.32-11.44-2.08-17.06-0.55-4-0.11-8.23-0.11-12.35-3.2 2.89-3 6.35-2.38 9.27 1 4.23-3.37 6.6-2.73 10.46 0.26 1.62-0.27 4 0.63 4.76 2.44 2 1.42 4.61 2 6.92 1.55 6.06-3.44 10.84-2.77 16.84s0.07 11.9 0.19 17.85c0 1.56-1.11 2.12-1.73 3.14-3.06 5-6 11.59-2.82 16.07 4.13 5.8-1 12.45 3.86 17.79 1.59 1.73 2.29 4.75 6.16 7.07-1.76-8.86 1.43-16.77-2.58-25.08-1.79-3.69-2.23-10.15 3.29-13.6 3.84 4.68 4.26 4.75 3.9 7-1.31 8.27 2.87 15.46 3.78 23.27 1-3.55 7.25-0.6 6.4-5-1.33-6.78 5.38-11 5.06-17-0.33-6.34 1.78-12.39 3.84-17.62 1.61-4.09-0.48-8.86 3.64-12.7 2.85-2.66 3.73-7.93 2.95-12.68-0.41-2.46-1.06-6.26 0.22-7.39 5.13-4.53 1.13-10.88 4.23-16.33 2.74-4.81 0.24-12.45 0.69-18.8 0.31-4.39-2.25-9.36 2.1-13.12-0.79-8.32 3.73-15.9 3.14-24.34-0.27-3.88-3.32-6.38-3-10.43 0.26-3.48 2-7.68-1.58-10.71-3.32-2.83 4.67-6.5-0.76-9.07-1-13-3.37-25.85-4.71-38.75-1-10.06-2.56-20.77 2-30.88a7.21 7.21 0 0 0-0.69-7.22c-2.36-2.94-2.52-5.72 0.15-8.8a5.11 5.11 0 0 0 0.61-4.68c-4.85-8.16-2.34-16.31 0.35-24.84z m-295 66.08c1.24 4-4.11 4.45-4.08 7.54 0 4.23-0.47 8.52 0.14 12.66 0.65 4.41-2.88 7.21-3 11.63-0.31 10.47 3.7 19.6 6.65 29.1 0.23 0.76 1.23 3.22 3.45 2.13 0.33-2.51 1.5-5-0.87-7-1.45-1.25-2-3.11-0.62-4.26 3.31-2.74 1.77-6.24 1.87-9.39 0.22-7.18-0.2-14.38 0.14-21.54s-4.79-13.12-3.63-20.89z m257.36 46c0.56-0.55 1.07-0.82 1.12-1.16a32.71 32.71 0 0 0 0.25-3.71c0.15-6.49 0.41-6.27 5.8-12.63 6.39-7.55 12-15.6 9.55-26.49-0.27-1.21 0.14-2.56-0.07-3.79-0.61-3.57-2.46-5.9-7.62-6 0 2.92-1.15 6.67 0.22 8.4 3.71 4.67 0 7.4-2.28 9.42-6.84 6.13-13.24 18.82-10.25 26.09 1.35 3.07 0.89 6.99 3.33 9.79z m-95.34-32.24c3.22 5.5 7.85 7.21 13.85 6.72 5.35-0.45 10.77-0.1 16.16-0.1-0.49-8.54-2-11.34-6.2-9.91-6 2-11.31-1.15-17-0.51-2.89 0.28-4.55 1.54-6.76 3.75z m-149.5-54.63c-5.29 11.4-11 32.42-10.36 38.13 3-5.92 8.1-10.69 9.87-17.27 1.91-6.93 6.54-13.82 0.54-20.91z m160.28 41.79c2.48-5 4.48-9 6.48-13-5.36-6.07-11.58-2.42-18.16-3.24 2.09 7.24 5.16 12.11 11.68 16.24z m12.22-12.49c0.76 2.28 3.89 0.47 4.87 2.6s-2 5.29 2.93 6.63c2.88-2.37 6.79-4.38 7.54-10.27-5.57 1.3-10.65-6.83-15.34 1.01z m-45.2-24c-2.63 6.65-2.63 6.65 0.63 10.33 1.67-5.37 8.73-4.69 11.27-10.33z m9.72 31.77c-2.79-2.34-5-4.81-7.8-6.31-1.37-0.74-4.42-1.12-5.31 1.27s0.44 4.42 3.07 3.55c3.62-1.21 5.12 4.31 10.04 1.48z m-5.76 55.17c-2.34 0.19-4.85-1.76-7.49 0.87-0.2 3.12 1.65 4.81 4.23 6 1.55-1.8 4.12-2.98 3.26-6.88z m-157.24 117c3.71-1.1 1.26-4.2 1.63-6.33 0.16-1-1.79-1.64-3-1.25-3.57 1.11-1.65 4.15-1.79 6.3-0.1 1.01 1.71 1.43 3.16 1.24z m36.34 20c1-3.19 2.15-6.43-0.42-10.49-1.34 4.26-1.39 7.37 0.42 10.44z m5-24.94a5.93 5.93 0 0 0 0-7.9 5.91 5.91 0 0 0 0 7.85z m0-64c-2 2.66-2 5.22 0 7.89a5.92 5.92 0 0 0 0-7.98z m182.06-56.94c-0.29-0.54-0.6-1.09-0.91-1.65-0.28 0.28-0.84 0.63-0.79 0.84a7.76 7.76 0 0 0 0.79 1.71z m169.14 136.99l0.9 1.64c0.29-0.28 0.85-0.62 0.8-0.83a7.44 7.44 0 0 0-0.8-1.72z m-378.9 50.5l-1.65 0.91c0.29 0.29 0.63 0.85 0.84 0.8a7.63 7.63 0 0 0 1.72-0.8z m14-328l0.91 0.91a8.54 8.54 0 0 0 0.8-1.71c0-0.21-0.52-0.56-0.8-0.84-0.28 0.58-0.58 1.15-0.88 1.68z m248.8 383.42l0.91-0.91a8.54 8.54 0 0 0-1.71-0.8c-0.21 0-0.56 0.52-0.84 0.8z" fill="#1a1818"></path><path d="M200.89 803.2c9 0 18.09-0.94 26.16 4.43a3.73 3.73 0 0 0 2.25 0.64c10.49-1 19.22 5 28.83 7s17.89 6 26.8 9.18c12.27 4.32 23.23 11.31 35.46 15.79 9.14 3.34 17.44 9.37 25.5 15.07 6.54 4.62 13.67 8.11 20.34 12.44 7.35 4.78 14.6 9.72 22 14.34 9.18 5.69 18.39 11.28 26.95 18 3.92 3.06 7.73 5.95 10.19 10.33h-30.56c-4.69-3.28-8.21-7.88-15.14-8.09-3.59-0.1-7.5-2.28-11.67-2.2-4 0.07-7.78-1.94-11.54-2.93-4.37-1.15-8.13-3-13-0.88 2 5.13-3.83 8.91-2.25 14.1h-140.32z" fill="#1a1818"></path><path d="M200.89 775.13c6.28-1 11.64 4.48 18 2.55 8.16 4.58 18.05 2.57 26.32 7.22 7.87 4.43 17.19 5.24 25.28 9.72 4.67 2.59 10.77 2.61 14.5 7.41-2 2-3.39 0.54-5.41-0.25-12.42-4.88-25-9.32-37.57-13.85a6.9 6.9 0 0 0-2.53 0c-12.34 0.48-24.16-2.7-36.1-5.08a12.66 12.66 0 0 0-2.54 0z" fill="#1a1818"></path><path d="M665.11 433.38c5.09-1.75 2.4-5.78 2.53-8.53 0.2-3.88 0.42-7.3 4.75-9.76 1.25 12 1.5 23.47-5 33.7 5.47 7.44 13.57 11.75 17.16 20 0.2 0.46 2.38 0.06 3.64 0.06-2.18 5.31-7.6 7.73-11 12.66-4.72-3.64-10.94-4.35-14.87-9.15-1.64-2-4-0.44-6-1-3.38-0.92-8.7 2.86-9.65-4.26-0.22-1.69-3.2-1.13-4.57-0.71-4.88 1.49-11.24 0.11-13.58 7-0.48 1.4-1.9 0.82-6.52-3.48 3.34-2.49 13-6.14 16.57-6.17 4.68-0.05 9.36-0.1 14 0 4.42 0.11 7.94-1.89 7.21-6.22-0.64-3.73 5-4.32 2.47-8-0.89-1.64-2.7-1.2-4.3-1.1-4.24 0.24-6.4-1.29-8.31-5.56a243.26 243.26 0 0 0-17.63-32.27c-0.4-0.63-0.12-1.89-0.6-2.25-4.49-3.26-6.32-8.62-9.94-12.48-11.95-12.74-24.44-25-39.39-34.21-9.72-6-19.28-12.79-33.11-13.35 4.72-3.1 8.38-1.67 11.71-2 5.8-0.5 7.91-3 7.56-8.81-0.22-3.88-2.48-6.77-4.54-9.58-2.22-3.06-5.3-5.49-8.16-8.36 4.57-6.44 11.05-3.53 16.91-3.46 0.3 0 0.6 0.56 0.9 0.86 3.83 3.79 12.31-2.84 13.81 6.16 5.26 1.31 8.66 5.74 13.27 8 5.37 2.65 9 7.09 13.36 10.88 5.9 5.18 10.36 11.73 17.72 15.63 6.46 3.42 9.38 11.81 17.11 14.18 3 7.78 11 11.43 15.09 18 3.56 5.79 6.3 13.36 3.67 19.85-3.18 7.88-1.46 15.58-2.38 23.57-2.48 4-2.57 4-2.12 8.88 0.09 1.06 1.08 1.16 2 0 0.12-2.58 0.12-5.77 0.23-8.72z" fill="#1a1818"></path><path d="M450.94 417.82c0.89 3.7 3.81 4.93 7.05 5.77 0.61 0.6 0.12 1-0.54 1.84-2.21 2.88-5.95 4.34-6.64 8.73-1 6.38 4.22 10.21 5.69 15.59 0.68 2.49 3.7 5.51 7 6.43 4.09-0.66 5.12-5.34 9.48-5.77 2.86-0.28 5.48-3 8.27-4.6 3.86 0.66 5.27 3.4 6 7.83 13.76-2 26.06 2.24 36.33 10l-6.7 7.38c-1.64-1.31-5.7-1-7.49-5.7-1.27-3.36-7.28-0.17-9.47-4.08-7.43 6.6-15.49-3.67-23 0.85-0.12 3.48 3.87 0.28 4.44 2.93-2.11 2.71-5.47 0.23-7.66 1.45-3.49 1.95-8 3.95-7.27 9 0.61 4.44-3.65 3.18-5.77 5.11l5.17 1.89c-0.68 3.95-4.45 4.11-7.07 5.28-4.34 1.95-1.46 6.28-3.51 8.91-3.09-10.88-0.67-17.22 11-29-4.74-7-10.94-11.06-17.8-11.54-0.33-1.56 0.61-3.2-0.83-4.72-3.85-4.11-4.77-9.16-4.3-14.61a17.8 17.8 0 0 0-0.11-5c-1.42-7-0.81-8.73 4.73-12.2 0.94-0.59 1.4-2.18 3-1.77z" fill="#1a1818"></path><path d="M457.07 398.45c2-8.38 1.68-8.81 7.55-13.17 3.23-2.39 3.06-7 7.63-8.61a11.32 11.32 0 0 0 6.91-8.2c0.72-3.27 5-0.4 6.35-2 6.41-7.92 17.89-10.5 21.73-21.27 1.37-3.85 7.58-4.1 8.65-8.91 7.21-1 11.71-6.65 16.91-11.87 4.88 7.81 3.92 15.88 7.5 22.56-5.36 5.51-13.07 4.75-19.64 6.7-3.3 1-5.71 2.57-8.57 4-15.88 8-28.06 20.67-41.62 31.6-4.02 3.22-8.47 5.85-13.4 9.17z" fill="#1a1818"></path><path d="M448.39 456.1c-0.07 2.83 0.44 7-4.24 4.45s-9.11-5.45-14.68-4.4-5.64-7.84-11.82-4.87c1-3.32 4.84-4.53 1.39-7.94-1.31 1.32-2.68 2.61-4 4-2.66 2.84-4.4 4.88-9.14 1.53-3.11-2.2-9-0.42-13.68-0.42 5.54-6.08 5.55-6.1 14.07-5.08a4.41 4.41 0 0 0 4.34-1.82c5-6.26 10.45-12.23 12.1-20.37 0.37-1.79 2-3 2-4.19 0.3-6.08 7.87-7.06 8.45-13.13 0.5-5.3 4.84-9 7.86-13.19 1-1.33 2.06-2.56 3.25-4 3.79 7.66 0.47 13.12-3.63 18.41-5.35 0.53-0.8 5.7-3.76 7.89a23.31 23.31 0 0 0-6.6 7.2c-2.61 4.6-2.35 9.32-2.39 14.15 4.39 2.59 9.68 4.31 10.21 10.65 0.39 4.7 5.79 6.55 6.58 11.13 0.1 0.18 2.43 0 3.69 0z" fill="#1a1818"></path><path d="M343.24 825.54c-7.1-8.19-15.72-13.92-25.21-19.08-9.13-5-17.08-12.06-25.86-17.74-7.62-4.93-15.59-9.11-24.69-11.25-6-1.42-11.35-6.26-17.34-7.11-8.21-1.18-14.44-5.21-20.85-9.69a5.57 5.57 0 0 1 6-0.69c6.29 3.16 12.93 1.87 19.42 2.49a37.65 37.65 0 0 1 14.5 5c2.69 1.48 7.68-2.94 8.58 3.94 0.39 3.05 8.25-1.35 7.56 5.29 8.65 1.22 13.65 8.3 20.26 12.65s12.87 9.79 19.85 13.71c9.07 5.1 13.54 13.47 17.78 22.48z" fill="#1a1818"></path><path d="M315.57 725.5l11.23-11.24a6 6 0 0 0 1.74 0.93c8.33 1.32 12.66 6.08 12.68 14.61 0 0.84-0.35 2 0.06 2.49 3 3.88 2.72 9 5 13.15-4.74 3.75-1.13 9.49-3.5 14.61-8.5-2.32-10.28-10.36-14.38-16.26s-11.26-9.65-12.83-18.29z" fill="#1a1818"></path><path d="M522.38 527.56c2.3-8.68 4.29-11.82 9.65-16.1 1.68-1.35 3-2.16 1.2-5.55-2.19-4.21 0.63-11.14-7.39-11.93-0.32 0-0.91-0.68-0.85-0.84 2.95-7.65-5.25-8.7-7.66-13.14-0.33-0.61 0.08-1.61 0.15-2.5 3.34-2 6.39-1.76 8.65 1.54 5.08 7.4 13.24 11.68 18.91 19.41-2 2.59-5.31 4.73-5.05 9.63 0.39 7.22-7.61 21.59-12.86 26.3-1.57 1.41-3.19 0.5-4.75 0.84 0.46-3.19 4-4.1 5-6.78a2.45 2.45 0 0 0-1.13-3.21c-0.31-0.13-1.1 1-1.76 1.42a14.59 14.59 0 0 1-2.11 0.91z" fill="#1a1818"></path><path d="M331 826.17c4.15-1.13 5.94 2.19 8.24 4.44 5.77 5.66 11 12 19.28 14.37 1.38 0.4 2.64 1.4 4.34 1.72 4.33 0.8 5.51 1.75 9.45 6.88 2.7 3.52 8.81 2.88 9.72 8.33-7.41 0.9-12.89-3.59-18.38-7.25a50.18 50.18 0 0 0-7.17-4.12c-9.44-4.21-17.27-10-22-19.52-0.82-1.79-3.56-2.29-3.48-4.85z" fill="#1a1818"></path><path d="M445 632.64c-3.34 8.82-0.24 18.84-6.07 28.34-1.46-8.84-0.84-16.87-0.5-24.78 0.11-1.75 2.81-5.29 6.57-3.56z" fill="#1a1818"></path><path d="M468.17 665.69c-5.06-4.88-4.32-9.84-0.74-16 0.72 4.18 6.1 1 6.43 5.46 0.32 4.23 0.49 8.53-5.69 10.54z" fill="#1a1818"></path><path d="M588.19 472.44c4-3.78 7.86-7.49 11.9-11 0.58-0.49 2.58-0.15 3.22 0.5a3.36 3.36 0 0 1 0.39 3.23c-2.56 3.54-6 6.15-8.22 10.33-1.97 3.74-4.4-1.27-7.29-3.06z" fill="#1a1818"></path><path d="M368.23 839.36c-5.28-5.73-6.57-12.92-11.6-17.69-0.32-0.3 0.55-2.24 1.26-3.08a2.85 2.85 0 0 1 2.34 0c2.22 6.31 9.27 10.14 9 17.65a15.88 15.88 0 0 1-1 3.12z" fill="#1a1818"></path><path d="M460.22 525.73c-3.59-7.8-9-14.31-6.13-23.05 2.86-1.24 6.21 0.31 4.19 2.56-3.64 4.07-1.38 6.39 0.3 9.51s4.22 6.25 1.64 10.98z" fill="#1a1818"></path><path d="M347.85 685.62c-4.2-3.22-8-6.41-6.71-12.66 0.3-1.44 0.78-2.2 2.07-2.45s3.25 0.56 3 1.27c-1.92 4.96 5.79 8.48 1.64 13.84z" fill="#1a1818"></path><path d="M415.64 662.36v-29.73c3.36 9.85 1.27 19.84 0 29.73z" fill="#1a1818"></path><path d="M614.55 493.37c5.74-2.61 7.28-9.94 14.13-12.29-3.96 10.43-3.96 10.43-14.13 12.29z" fill="#1a1818"></path><path d="M522.38 535.22c-0.64 3.27-3.21 4.28-5.26 5.47-3.43-1.76-2.48-5.32-4.69-7l7.4-3.55c0.38 1.91-1.27 4.86 2.55 5.08z" fill="#1a1818"></path><path d="M681.39 534.74c-1.86 7.27-6.73 9.39-10.95 14.87-0.23-9.52 4.75-12.12 10.95-14.87z" fill="#1a1818"></path><path d="M540 322.41c2.28-2.9 4.83-0.64 6.74-1.84 1.56 3 2.13 6.46 0.22 7.23-4.81 1.97-5.96-1.98-6.96-5.39z" fill="#1a1818"></path><path d="M477.18 540.39c-2.2-0.66-5.46 1.48-5.82-2.65-0.22-2.43 1.54-2.76 3.18-2.42 1 0.21 1.82 1.52 2.86 2.06a3.09 3.09 0 0 0 4.24-1c1.07-1.43 2-0.83 2.39 0.37s0.46 2.85-1 3.2a31.37 31.37 0 0 1-5.85 0.44z" fill="#1a1818"></path><path d="M693.33 468.86h-5.1a25.88 25.88 0 0 1 10.2-10.21c0 2 0.31 3.9-1.58 5.56-1.41 1.24-3.63 2.16-3.52 4.65z" fill="#1a1818"></path><path d="M450.22 645.52c2.63 3-1.05 4.09-1.77 6.1-0.65 1.83 0.78 4.09-1.71 6.53-1.01-5.32-3.06-9.98 3.48-12.63z" fill="#1a1818"></path><path d="M685.68 525c0.2 4.36 0.54 8.78-5.11 10.21-0.2-4.35 1.77-7.61 5.11-10.21z" fill="#1a1818"></path><path d="M417.42 457c5.46-2.41 6.91 3.27 10.77 2.82-4.72 3.69-7.59 0.68-10.77-2.82z" fill="#1a1818"></path><path d="M689.5 512.59c-1.72-3-1.72-5.3 0-8.33 1.63 2.8 1.85 5.07 0 8.33z" fill="#1a1818"></path><path d="M346.33 782.79c-2.47-0.38-3.69-2.19-4.92-4.39 4.93-2.06 5.07 0.99 4.92 4.39z" fill="#1a1818"></path><path d="M470.07 473.85a5.89 5.89 0 0 1 0 7.89 5.92 5.92 0 0 1 0-7.89z" fill="#1a1818"></path><path d="M686 524.62v-7.18c2.36 4.23 2.36 4.23 0 7.18z" fill="#1a1818"></path><path d="M624.49 596.47c-1.25 0.11-2.36-0.17-2.1-1.66 0.07-0.4 1.28-0.73 2-0.86 1.22-0.21 2.35 0.14 2.09 1.63-0.06 0.42-1.29 0.61-1.99 0.89z" fill="#1a1818"></path><path d="M606.63 504.59c-1.25 0.11-2.36-0.17-2.1-1.66 0.07-0.4 1.28-0.73 2-0.86 1.22-0.21 2.35 0.14 2.09 1.63-0.06 0.4-1.29 0.6-1.99 0.89z" fill="#1a1818"></path><path d="M624.49 542.88c0.7 0.28 1.93 0.48 2 0.88 0.26 1.5-0.87 1.85-2.09 1.64-0.73-0.13-1.94-0.46-2-0.86-0.27-1.49 0.84-1.77 2.09-1.66z" fill="#1a1818"></path><path d="M387.15 451c0.22-3.82 3.17-2.17 5.1-2.56-0.25 3.82-3.17 2.17-5.1 2.56z" fill="#1a1818"></path><path d="M298.15 810.83a2.1 2.1 0 0 1-2.64-1.46 12.57 12.57 0 0 1 3.13-1 2.18 2.18 0 0 1 1.69 1.29c0.38 2.42-1.61 0.61-2.18 1.17z" fill="#1a1818"></path><path d="M674.41 412.28c-0.4-0.25-1.38-0.56-1.41-0.94-0.08-1.13-0.64-2.6 0.82-3.26 0.35-0.15 1.57 0.58 1.56 0.89-0.01 1.13 0.79 2.56-0.97 3.31z" fill="#1a1818"></path><path d="M606.55 517.48c-0.26 0.62-0.46 1.86-0.86 1.93-1.49 0.25-1.84-0.88-1.63-2.1 0.13-0.72 0.46-1.94 0.86-2 1.48-0.26 1.79 0.83 1.63 2.17z" fill="#1a1818"></path><path d="M699.92 456.31c0.29 0.29 0.84 0.71 0.78 0.81a3.37 3.37 0 0 1-1.15 1.49c-1.07 0.52-1.59 0-1.07-1.08 0.25-0.53 0.95-0.82 1.44-1.22z" fill="#1a1818"></path><path d="M695.67 470.35c-0.29 0.29-0.71 0.83-0.8 0.78a3.47 3.47 0 0 1-1.5-1.15c-0.52-1.07 0-1.6 1.08-1.08 0.55 0.26 0.82 0.95 1.22 1.45z" fill="#1a1818"></path><path d="M602.75 588.82a7.37 7.37 0 0 1 0.8 1.71c0.05 0.21-0.51 0.55-0.8 0.84a7.83 7.83 0 0 1-0.79-1.72c-0.05-0.21 0.51-0.55 0.79-0.83z" fill="#1a1818"></path><path d="M613 558.19a8.54 8.54 0 0 1 0.8 1.71c0 0.21-0.52 0.56-0.8 0.84a8 8 0 0 1-0.8-1.71c-0.09-0.21 0.48-0.56 0.8-0.84z" fill="#1a1818"></path><path d="M387.15 452.13c-0.5 0.4-1.14 1.21-1.49 1.1-1-0.31-1.15-1.08-0.48-1.5a9.48 9.48 0 0 1 2-0.73z" fill="#1a1818"></path><path d="M348.51 802.3l-0.91 0.9a8.29 8.29 0 0 1-0.8-1.71c0-0.21 0.52-0.55 0.8-0.84z" fill="#1a1818"></path><path d="M616.42 536.13c-0.3 0.53-0.6 1.09-0.91 1.64-0.28-0.28-0.84-0.63-0.8-0.84a8.54 8.54 0 0 1 0.8-1.71z" fill="#1a1818"></path><path d="M611.32 531.76c-0.35 0.34-0.63 0.62-0.91 0.91a7.63 7.63 0 0 1-0.8-1.72c-0.05-0.21 0.51-0.55 0.8-0.84 0.3 0.56 0.59 1.11 0.91 1.65z" fill="#1a1818"></path><path d="M468.43 531c-0.29 0.54-0.6 1.09-0.91 1.65-0.28-0.29-0.84-0.63-0.79-0.84a8 8 0 0 1 0.79-1.72z" fill="#1a1818"></path><path d="M519.83 530.11q-0.11-2.64 2.55-2.55c0.07 1.77-0.79 2.62-2.55 2.55z" fill="#1a1818"></path><path d="M452.42 415.47c0.3 0.3 0.84 0.71 0.79 0.81a3.38 3.38 0 0 1-1.16 1.49c-1.06 0.53-1.59 0-1.07-1.07 0.25-0.52 0.95-0.83 1.44-1.23z" fill="#1a1818"></path><path d="M302.74 812.35c-0.29 0.29-0.71 0.83-0.8 0.78a3.47 3.47 0 0 1-1.5-1.15c-0.52-1.07 0-1.6 1.08-1.08 0.48 0.26 0.82 0.95 1.22 1.45z" fill="#1a1818"></path><path d="M463.49 526.49c-0.3 0.3-0.71 0.84-0.81 0.79a3.44 3.44 0 0 1-1.49-1.15c-0.53-1.07 0-1.6 1.07-1.08 0.52 0.25 0.83 0.95 1.23 1.44z" fill="#1a1818"></path><path d="M329.88 826.17c-0.39-0.5-1.21-1.13-1.1-1.48 0.31-1 1.08-1.16 1.5-0.48a9.79 9.79 0 0 1 0.74 2z" fill="#1a1818"></path><path d="M657.24 524.1c-0.34 0.34-0.62 0.63-0.91 0.91a8 8 0 0 1-0.79-1.71c-0.05-0.21 0.51-0.56 0.79-0.84z" fill="#1a1818"></path><path d="M443.08 406.54c-0.3 0.29-0.72 0.84-0.81 0.79a3.33 3.33 0 0 1-1.49-1.16c-0.53-1.07 0-1.59 1.07-1.07 0.52 0.25 0.83 0.95 1.23 1.44z" fill="#1a1818"></path><path d="M613.22 683.05l9.1 13.56a4.64 4.64 0 0 1-6.06 1.77 17.45 17.45 0 0 1-6.42-5.67c-2.66-4.05 0.16-6.92 3.38-9.66z" fill="#1a1818"></path><path d="M634.24 683.78v22.22h-7.36c0.98-8 7.12-14.35 7.36-22.22z" fill="#1a1818"></path><path d="M633.58 716.64c0.29 0.29 0.84 0.71 0.79 0.8a3.41 3.41 0 0 1-1.16 1.5c-1.07 0.52-1.59 0-1.07-1.08 0.25-0.52 0.95-0.86 1.44-1.22z" fill="#1a1818"></path><path d="M664 637.33c-1.85-1.72-1.85-3.42 0-5.15 1.84 1.73 1.84 3.43 0 5.15z" fill="#1a1818"></path></g></svg>